HIERARCHY
ROOT Hips
{
	OFFSET 0.000000 0.000000 0.000000
	CHANNELS 6 Xposition Yposition Zposition Xrotation Yrotation Zrotation
	JOINT LeftUpLeg_virtual
	{
		OFFSET 0.000000 0.000000 0.000000
		CHANNELS 3 Xrotation Yrotation Zrotation
		JOINT LeftUpLeg
		{
			OFFSET 13.026900 -6.336304 -1.092800
			CHANNELS 3 Xrotation Yrotation Zrotation
			JOINT LeftLeg
			{
				OFFSET 0.524474 -46.096886 9.782700
				CHANNELS 3 Xrotation Yrotation Zrotation
				JOINT LeftFoot
				{
					OFFSET -0.524474 -53.427422 -12.948200
					CHANNELS 3 Xrotation Yrotation Zrotation
					JOINT LeftToeBase
					{
						OFFSET 0.192200 -14.009700 16.364100
						CHANNELS 3 Xrotation Yrotation Zrotation
						JOINT LeftToe_End
						{
							OFFSET -1.784700 -0.561700 9.474800
							CHANNELS 3 Xrotation Yrotation Zrotation
							End Site
							{
								OFFSET 0 0 0
							}
						}
					}
				}
			}
		}
	}
	JOINT RightUpLeg_virtual
	{
		OFFSET 0.000000 0.000000 0.000000
		CHANNELS 3 Xrotation Yrotation Zrotation
		JOINT RightUpLeg
		{
			OFFSET -12.883000 -6.336304 -1.092800
			CHANNELS 3 Xrotation Yrotation Zrotation
			JOINT RightLeg
			{
				OFFSET -0.524587 -46.096825 9.782800
				CHANNELS 3 Xrotation Yrotation Zrotation
				JOINT RightFoot
				{
					OFFSET 0.524587 -53.427383 -12.948300
					CHANNELS 3 Xrotation Yrotation Zrotation
					JOINT RightToeBase
					{
						OFFSET -0.192200 -14.009700 16.364100
						CHANNELS 3 Xrotation Yrotation Zrotation
						JOINT RightToe_End
						{
							OFFSET 1.784700 -0.561700 9.474800
							CHANNELS 3 Xrotation Yrotation Zrotation
							End Site
							{
								OFFSET 0 0 0
							}
						}
					}
				}
			}
		}
	}
	JOINT Spine_virtual
	{
		OFFSET 0.000000 0.000000 0.000000
		CHANNELS 3 Xrotation Yrotation Zrotation
		JOINT Spine
		{
			OFFSET 0.072000 7.257294 -0.789700
			CHANNELS 3 Xrotation Yrotation Zrotation
			JOINT Spine1
			{
				OFFSET 0.000000 12.508769 -0.658067
				CHANNELS 3 Xrotation Yrotation Zrotation
				JOINT Spine1_split
				{
					OFFSET 0.000000 12.508769 -0.658067
					CHANNELS 3 Xrotation Yrotation Zrotation
					JOINT Spine2
					{
						OFFSET 0.000000 12.508769 -0.658067
						CHANNELS 3 Xrotation Yrotation Zrotation
						JOINT Neck_virtual
						{
							OFFSET 0.000000 0.000000 0.000000
							CHANNELS 3 Xrotation Yrotation Zrotation
							JOINT Neck
							{
								OFFSET 0.000000 14.033295 7.520400
								CHANNELS 3 Xrotation Yrotation Zrotation
								JOINT Head
								{
									OFFSET 0.000000 8.198502 5.703100
									CHANNELS 3 Xrotation Yrotation Zrotation
									JOINT HeadTop_End
									{
										OFFSET 0.000000 17.760803 13.332701
										CHANNELS 3 Xrotation Yrotation Zrotation
										End Site
										{
											OFFSET 0 0 0
										}
									}
								}
							}
						}
						JOINT LeftShoulder_virtual
						{
							OFFSET 0.000000 0.000000 0.000000
							CHANNELS 3 Xrotation Yrotation Zrotation
							JOINT LeftShoulder
							{
								OFFSET 6.292450 5.785301 -0.669000
								CHANNELS 3 Xrotation Yrotation Zrotation
								JOINT LeftShoulder_split
								{
									OFFSET 6.292450 5.785301 -0.669000
									CHANNELS 3 Xrotation Yrotation Zrotation
									JOINT LeftArm
									{
										OFFSET 13.907140 -6.093903 1.965100
										CHANNELS 3 Xrotation Yrotation Zrotation
										JOINT LeftForeArm
										{
											OFFSET 34.140198 0.000000 0.000000
											CHANNELS 3 Xrotation Yrotation Zrotation
											JOINT LeftHand
											{
												OFFSET 40.960209 0.000000 0.000000
												CHANNELS 3 Xrotation Yrotation Zrotation
												End Site
												{
													OFFSET 0 0 0
												}
											}
										}
									}
								}
							}
						}
						JOINT RightShoulder_virtual
						{
							OFFSET 0.000000 0.000000 0.000000
							CHANNELS 3 Xrotation Yrotation Zrotation
							JOINT RightShoulder
							{
								OFFSET -6.292450 5.785301 -0.669000
								CHANNELS 3 Xrotation Yrotation Zrotation
								JOINT RightShoulder_split
								{
									OFFSET -6.292450 5.785301 -0.669000
									CHANNELS 3 Xrotation Yrotation Zrotation
									JOINT RightArm
									{
										OFFSET -13.907140 -6.093903 1.965100
										CHANNELS 3 Xrotation Yrotation Zrotation
										JOINT RightForeArm
										{
											OFFSET -34.140198 0.000000 0.000000
											CHANNELS 3 Xrotation Yrotation Zrotation
											JOINT RightHand
											{
												OFFSET -40.960209 0.000000 0.000000
												CHANNELS 3 Xrotation Yrotation Zrotation
												End Site
												{
													OFFSET 0 0 0
												}
											}
										}
									}
								}
							}
						}
					}
				}
			}
		}
	}
}
MOTION
Frames: 9
Frame Time: 0.03333333
-0.395012 53.466991 -11.298458 0.000000 0.000000 0.000000 68.832392 -1.524276 1.133790 0.338752 12.863023 9.984976 11.759167 10.288332 3.445954 -39.863549 9.261467 -8.890534 -32.813933 0.208761 -4.627571 0.000000 0.000000 0.000000 70.826473 -5.343170 1.904840 -2.364700 -5.228797 -7.789260 12.349138 2.801871 -0.130994 -19.527980 0.419049 11.183194 -49.916330 -1.872185 5.968294 0.000000 0.000000 0.000000 73.645777 -2.683688 0.540582 -2.170309 1.939316 -0.808200 1.634399 1.355340 0.174653 0.742572 -0.747174 0.890555 0.000000 0.000000 0.000000 1.870157 -0.368822 0.230958 -9.638773 0.623271 3.134779 9.452068 9.276708 -5.537429 0.000000 0.000000 0.000000 2.063492 -0.628284 1.065932 2.686114 1.764550 1.618672 0.059435 1.265376 -2.781539 -43.210553 -56.952675 -49.119210 1.040338 -20.556202 -0.117429 0.000000 0.000000 0.000000 1.266264 -0.348165 1.128740 0.160120 5.021485 15.260772 4.461862 8.616307 -2.676926 -55.665656 56.830695 52.210249 -0.894582 20.429497 0.438656 0.000000 0.000000 0.000000 
-0.662266 53.525707 -11.441059 0.000000 0.000000 0.000000 68.818978 -1.395987 1.124119 0.544550 13.186377 10.017727 11.913453 10.364193 3.329830 -39.811844 8.936987 -8.834204 -33.317697 0.131149 -4.405392 0.000000 0.000000 0.000000 70.887180 -5.608789 2.156821 -2.590711 -5.103503 -7.782639 12.474754 2.824914 -0.085176 -19.734283 0.332982 11.197950 -49.255069 -1.809468 5.945456 0.000000 0.000000 0.000000 73.999793 -2.634963 0.689878 -2.058422 1.959844 -0.853301 1.740256 1.351805 0.169807 0.801259 -1.061968 0.875406 0.000000 0.000000 0.000000 1.832475 -0.370247 0.285456 -9.965526 0.475158 3.066853 9.420335 9.229690 -5.902618 0.000000 0.000000 0.000000 2.134169 -0.601167 1.065408 2.666604 1.879524 1.669202 0.608933 1.531972 -2.379113 -43.747771 -56.937072 -49.595045 1.151808 -19.903286 -0.239212 0.000000 0.000000 0.000000 1.411439 -0.287543 1.180743 0.100438 5.288746 15.184071 4.480072 8.433150 -2.859496 -55.391130 56.067431 51.424829 -0.856284 20.772685 0.622709 0.000000 0.000000 0.000000 
-0.885652 53.635059 -11.549709 0.000000 0.000000 0.000000 68.843389 -1.475564 1.256251 0.758041 13.397594 10.068164 11.855612 10.501535 3.226351 -39.536564 8.464731 -8.776209 -34.176539 0.047913 -4.098995 0.000000 0.000000 0.000000 71.032062 -5.881360 2.422860 -2.893118 -5.094916 -7.683428 12.375344 2.805635 -0.056520 -19.727881 0.149432 11.450607 -49.295678 -1.764542 5.852243 0.000000 0.000000 0.000000 74.209356 -2.534939 0.835089 -1.828822 1.914570 -0.958441 1.881064 1.341777 0.181124 0.893998 -1.321230 0.842466 0.000000 0.000000 0.000000 1.786999 -0.397590 0.375043 -10.041777 0.402073 2.932609 9.250988 9.044962 -6.076085 0.000000 0.000000 0.000000 2.256795 -0.620116 1.069890 2.666843 1.915791 2.041039 1.159420 1.837100 -1.970303 -44.043580 -57.265822 -50.073732 1.236727 -19.731187 -0.380564 0.000000 0.000000 0.000000 1.627557 -0.242785 1.257519 -0.066840 5.891030 15.047924 4.606005 8.244904 -2.929386 -53.207775 54.654771 48.754905 -0.815143 22.780394 0.792322 0.000000 0.000000 0.000000 
-1.066401 53.785168 -11.631741 0.000000 0.000000 0.000000 68.844509 -1.662698 1.452545 1.019628 13.566164 10.036377 11.401466 10.801653 3.165482 -39.300270 7.959510 -8.399189 -34.837837 -0.018995 -3.814968 0.000000 0.000000 0.000000 71.195932 -6.093017 2.672879 -3.081355 -5.216036 -7.451121 12.026210 2.688167 -0.069408 -19.694941 -0.138785 11.782633 -49.776680 -1.747848 5.733619 0.000000 0.000000 0.000000 74.269326 -2.523003 1.074824 -1.526888 1.807817 -1.110533 2.028895 1.305914 0.197912 0.904395 -1.458663 0.859586 0.000000 0.000000 0.000000 1.766469 -0.459059 0.488046 -9.862546 0.420548 2.747169 8.890412 8.730442 -6.056726 0.000000 0.000000 0.000000 2.407905 -0.676294 1.086691 2.676637 1.976861 2.761674 1.700129 2.021293 -1.632285 -44.252994 -57.766455 -50.556053 1.328313 -20.245586 -0.517856 0.000000 0.000000 0.000000 1.877423 -0.224395 1.350193 -0.353595 6.882088 14.838994 4.743955 8.181852 -2.932431 -49.749903 52.764427 44.942764 -0.766415 26.015118 0.940233 0.000000 0.000000 0.000000 
-1.233202 53.967850 -11.678417 0.000000 0.000000 0.000000 68.852842 -1.864315 1.685430 1.398886 13.572724 9.898395 10.389198 11.118826 3.166632 -39.200703 7.472151 -7.891856 -34.887657 -0.051608 -3.616144 0.000000 0.000000 0.000000 71.306130 -6.286927 2.936210 -3.132921 -5.448546 -7.112667 11.587608 2.377605 -0.129470 -19.843791 -0.528327 11.857998 -49.912598 -1.742398 5.666112 0.000000 0.000000 0.000000 74.194760 -2.594744 1.358758 -1.200310 1.671288 -1.293376 2.171342 1.226171 0.207594 0.927031 -1.708296 0.815255 0.000000 0.000000 0.000000 1.806075 -0.554956 0.611430 -9.407498 0.548530 2.528778 8.368010 8.389445 -5.885261 0.000000 0.000000 0.000000 2.590516 -0.765124 1.105743 2.683465 2.129326 3.775807 2.084002 2.058180 -1.416423 -44.314653 -58.137245 -50.838365 1.468969 -21.342482 -0.619688 0.000000 0.000000 0.000000 2.128945 -0.248848 1.452642 -0.771979 8.321166 14.514861 4.836844 8.117793 -2.963947 -45.749734 50.592311 40.690698 -0.737840 29.955181 1.057941 0.000000 0.000000 0.000000 
-1.389224 54.253601 -11.663334 0.000000 0.000000 0.000000 68.805529 -2.098076 1.959219 1.755185 13.269455 9.734006 9.057333 11.127028 3.232484 -38.917468 7.090798 -7.747909 -34.307876 -0.060263 -3.441459 0.000000 0.000000 0.000000 71.351721 -6.456380 3.194652 -3.175436 -5.836231 -6.726946 11.188786 1.826440 -0.198356 -20.161735 -1.021890 11.639792 -49.391345 -1.738677 5.680092 0.000000 0.000000 0.000000 74.015290 -2.705002 1.609375 -0.887818 1.557642 -1.458319 2.314144 1.106506 0.201238 0.949268 -1.843915 0.662515 0.000000 0.000000 0.000000 1.923019 -0.669754 0.725491 -8.733515 0.736295 2.297173 7.761901 8.014999 -5.596381 0.000000 0.000000 0.000000 2.807785 -0.871227 1.106969 2.677381 2.344975 5.002104 2.287293 1.984017 -1.241856 -44.014354 -58.162790 -50.683600 1.684825 -22.890706 -0.681437 0.000000 0.000000 0.000000 2.396519 -0.299487 1.549151 -1.292946 10.265394 14.096769 4.691690 7.907556 -3.060732 -41.727634 48.251687 36.518628 -0.725237 33.998824 1.151104 0.000000 0.000000 0.000000 
-1.531481 54.652412 -11.622494 0.000000 0.000000 0.000000 68.741974 -2.370531 2.241760 2.037540 12.580343 9.547823 7.735613 10.835346 3.376796 -38.358718 6.881410 -7.875591 -33.321781 -0.095910 -3.221966 0.000000 0.000000 0.000000 71.389356 -6.686889 3.440752 -3.368585 -6.361138 -6.311125 10.789257 1.214255 -0.295935 -20.499756 -1.542936 11.491560 -48.613533 -1.736733 5.726746 0.000000 0.000000 0.000000 73.877833 -2.911061 1.869623 -0.605184 1.491923 -1.570775 2.481436 0.967948 0.170075 0.933220 -1.952378 0.616396 0.000000 0.000000 0.000000 2.127695 -0.788705 0.822306 -7.977950 0.942206 2.109401 7.151369 7.618404 -5.232480 0.000000 0.000000 0.000000 3.091912 -0.980649 1.059858 2.664396 2.499642 6.396088 2.366463 1.770674 -1.165384 -43.136408 -57.731382 -49.832620 1.927165 -24.694156 -0.712128 0.000000 0.000000 0.000000 2.694430 -0.346271 1.636874 -1.881569 12.686301 13.683500 4.291095 7.577191 -3.263784 -38.050656 45.761212 32.680666 -0.722324 37.663111 1.243148 0.000000 0.000000 0.000000 
-1.691459 55.257660 -11.589565 0.000000 0.000000 0.000000 68.697599 -2.686876 2.514267 2.251719 11.346407 9.211726 6.668246 10.409534 3.660997 -37.569838 7.023192 -8.175860 -32.089861 -0.152535 -2.978295 0.000000 0.000000 0.000000 71.489514 -7.072990 3.726695 -3.710612 -6.929474 -5.857739 10.316109 0.715397 -0.480355 -20.835248 -2.023541 11.634229 -47.894963 -1.720633 5.764132 0.000000 0.000000 0.000000 73.778344 -3.214302 2.121711 -0.308608 1.511384 -1.619910 2.695509 0.849707 0.126134 0.792895 -1.949512 0.594665 0.000000 0.000000 0.000000 2.398857 -0.868614 0.885778 -7.252790 1.102663 2.036774 6.592414 7.196758 -4.834264 0.000000 0.000000 0.000000 3.466943 -1.063285 0.963396 2.662023 2.452195 7.900645 2.362938 1.364672 -1.259070 -41.656490 -56.774933 -48.208346 2.114322 -26.570916 -0.731854 0.000000 0.000000 0.000000 3.058632 -0.354390 1.698692 -2.491497 15.499996 13.337655 3.713261 7.053090 -3.555381 -34.829853 43.104357 29.243704 -0.698553 40.801074 1.371788 0.000000 0.000000 0.000000 
-1.966701 56.099483 -11.514500 0.000000 0.000000 0.000000 68.738723 -3.128876 2.783919 2.384723 9.830807 8.643165 5.906016 10.263423 4.192503 -37.210283 7.583099 -8.015519 -30.760204 -0.248587 -2.800158 0.000000 0.000000 0.000000 71.657659 -7.653174 4.088669 -4.225133 -7.456119 -5.312582 9.832348 0.371156 -0.772530 -21.299730 -2.458779 11.916665 -47.142731 -1.676917 5.799838 0.000000 0.000000 0.000000 73.762976 -3.590213 2.354769 0.012910 1.639613 -1.595138 2.995528 0.804691 0.084481 0.602777 -1.786502 0.571132 0.000000 0.000000 0.000000 2.740288 -0.876783 0.905289 -6.672416 1.189006 2.109136 6.078179 6.754077 -4.465751 0.000000 0.000000 0.000000 3.931174 -1.077048 0.833792 2.682899 2.072280 9.481054 2.414007 0.758350 -1.500561 -39.807633 -55.294322 -45.966183 2.151895 -28.504813 -0.782156 0.000000 0.000000 0.000000 3.534837 -0.280338 1.722597 -3.078756 18.595388 13.132805 3.036111 6.300351 -3.872893 -32.233036 40.293256 26.202286 -0.654394 43.375147 1.552192 0.000000 0.000000 0.000000 
